<svg width="73" height="32" viewBox="0 0 73 32" fill="none" xmlns="http://www.w3.org/2000/svg">
<path d="M41.868 12.612V13.308H39.54V21H38.7V13.308H36.36V12.612H41.868ZM46.0624 21.096C45.4464 21.096 44.8904 20.96 44.3944 20.688C43.9064 20.408 43.5184 20.016 43.2304 19.512C42.9504 19 42.8104 18.404 42.8104 17.724C42.8104 17.044 42.9544 16.452 43.2424 15.948C43.5304 15.436 43.9224 15.044 44.4184 14.772C44.9144 14.492 45.4704 14.352 46.0864 14.352C46.7024 14.352 47.2584 14.492 47.7544 14.772C48.2584 15.044 48.6504 15.436 48.9304 15.948C49.2184 16.452 49.3624 17.044 49.3624 17.724C49.3624 18.396 49.2184 18.988 48.9304 19.5C48.6424 20.012 48.2464 20.408 47.7424 20.688C47.2384 20.96 46.6784 21.096 46.0624 21.096ZM46.0624 20.364C46.4944 20.364 46.8944 20.268 47.2624 20.076C47.6304 19.876 47.9264 19.58 48.1504 19.188C48.3824 18.788 48.4984 18.3 48.4984 17.724C48.4984 17.148 48.3864 16.664 48.1624 16.272C47.9384 15.872 47.6424 15.576 47.2744 15.384C46.9064 15.184 46.5064 15.084 46.0744 15.084C45.6424 15.084 45.2424 15.184 44.8744 15.384C44.5064 15.576 44.2104 15.872 43.9864 16.272C43.7704 16.664 43.6624 17.148 43.6624 17.724C43.6624 18.3 43.7704 18.788 43.9864 19.188C44.2104 19.58 44.5024 19.876 44.8624 20.076C45.2304 20.268 45.6304 20.364 46.0624 20.364ZM50.5096 17.712C50.5096 17.04 50.6456 16.452 50.9176 15.948C51.1896 15.436 51.5616 15.044 52.0336 14.772C52.5136 14.492 53.0536 14.352 53.6536 14.352C54.2296 14.352 54.7496 14.492 55.2136 14.772C55.6776 15.052 56.0176 15.416 56.2336 15.864V12.12H57.0736V21H56.2336V19.536C56.0336 19.992 55.7056 20.368 55.2496 20.664C54.7936 20.952 54.2576 21.096 53.6416 21.096C53.0416 21.096 52.5016 20.956 52.0216 20.676C51.5496 20.396 51.1776 20 50.9056 19.488C50.6416 18.976 50.5096 18.384 50.5096 17.712ZM56.2336 17.724C56.2336 17.196 56.1256 16.732 55.9096 16.332C55.6936 15.932 55.3976 15.624 55.0216 15.408C54.6536 15.192 54.2456 15.084 53.7976 15.084C53.3336 15.084 52.9176 15.188 52.5496 15.396C52.1816 15.604 51.8896 15.908 51.6736 16.308C51.4656 16.7 51.3616 17.168 51.3616 17.712C51.3616 18.248 51.4656 18.72 51.6736 19.128C51.8896 19.528 52.1816 19.836 52.5496 20.052C52.9176 20.26 53.3336 20.364 53.7976 20.364C54.2456 20.364 54.6536 20.256 55.0216 20.04C55.3976 19.824 55.6936 19.516 55.9096 19.116C56.1256 18.716 56.2336 18.252 56.2336 17.724ZM58.6073 17.712C58.6073 17.04 58.7393 16.452 59.0033 15.948C59.2753 15.436 59.6473 15.044 60.1193 14.772C60.5993 14.492 61.1393 14.352 61.7393 14.352C62.3633 14.352 62.8993 14.496 63.3473 14.784C63.8033 15.072 64.1313 15.44 64.3313 15.888V14.448H65.1713V21H64.3313V19.548C64.1233 19.996 63.7913 20.368 63.3353 20.664C62.8873 20.952 62.3513 21.096 61.7273 21.096C61.1353 21.096 60.5993 20.956 60.1193 20.676C59.6473 20.396 59.2753 20 59.0033 19.488C58.7393 18.976 58.6073 18.384 58.6073 17.712ZM64.3313 17.724C64.3313 17.196 64.2233 16.732 64.0073 16.332C63.7913 15.932 63.4953 15.624 63.1193 15.408C62.7513 15.192 62.3433 15.084 61.8953 15.084C61.4313 15.084 61.0153 15.188 60.6473 15.396C60.2793 15.604 59.9873 15.908 59.7713 16.308C59.5633 16.7 59.4593 17.168 59.4593 17.712C59.4593 18.248 59.5633 18.72 59.7713 19.128C59.9873 19.528 60.2793 19.836 60.6473 20.052C61.0153 20.26 61.4313 20.364 61.8953 20.364C62.3433 20.364 62.7513 20.256 63.1193 20.04C63.4953 19.824 63.7913 19.516 64.0073 19.116C64.2233 18.716 64.3313 18.252 64.3313 17.724ZM72.4889 14.448L68.6009 24.084H67.7249L68.9969 20.964L66.3089 14.448H67.2329L69.4649 20.04L71.6249 14.448H72.4889Z" fill="white"/>
<path fill-rule="evenodd" clip-rule="evenodd" d="M4.33331 10.4953C4.33331 7.88114 6.4525 5.76196 9.06665 5.76196H22.9333C25.5475 5.76196 27.6666 7.88114 27.6666 10.4953V24.362C27.6666 26.9761 25.5475 29.0953 22.9333 29.0953H9.06665C6.4525 29.0953 4.33331 26.9761 4.33331 24.362V10.4953ZM9.06665 7.76196C7.55707 7.76196 6.33331 8.98571 6.33331 10.4953V24.362C6.33331 25.8715 7.55707 27.0953 9.06665 27.0953H22.9333C24.4429 27.0953 25.6666 25.8715 25.6666 24.362V10.4953C25.6666 8.98571 24.4429 7.76196 22.9333 7.76196H9.06665Z" fill="white"/>
<path fill-rule="evenodd" clip-rule="evenodd" d="M11.4285 4.23809C11.9808 4.23809 12.4285 4.68581 12.4285 5.23809V8.28571C12.4285 8.83799 11.9808 9.28571 11.4285 9.28571C10.8762 9.28571 10.4285 8.83799 10.4285 8.28571V5.23809C10.4285 4.68581 10.8762 4.23809 11.4285 4.23809Z" fill="white"/>
<path fill-rule="evenodd" clip-rule="evenodd" d="M20.5714 4.23809C21.1237 4.23809 21.5714 4.68581 21.5714 5.23809V8.28571C21.5714 8.83799 21.1237 9.28571 20.5714 9.28571C20.0191 9.28571 19.5714 8.83799 19.5714 8.28571V5.23809C19.5714 4.68581 20.0191 4.23809 20.5714 4.23809Z" fill="white"/>
<path fill-rule="evenodd" clip-rule="evenodd" d="M6.33331 15.9048C6.33331 19.9811 9.63788 23.2857 13.7143 23.2857H25.9047C26.457 23.2857 26.9047 23.7334 26.9047 24.2857C26.9047 24.838 26.457 25.2857 25.9047 25.2857H13.7143C8.53332 25.2857 4.33331 21.0857 4.33331 15.9048H6.33331Z" fill="white"/>
<path fill-rule="evenodd" clip-rule="evenodd" d="M9.66663 13.3333C9.66663 12.7811 10.1143 12.3333 10.6666 12.3333H11.3333C11.8856 12.3333 12.3333 12.7811 12.3333 13.3333C12.3333 13.8856 11.8856 14.3333 11.3333 14.3333H10.6666C10.1143 14.3333 9.66663 13.8856 9.66663 13.3333Z" fill="white"/>
<path fill-rule="evenodd" clip-rule="evenodd" d="M15 13.3333C15 12.7811 15.4477 12.3333 16 12.3333H16.6667C17.219 12.3333 17.6667 12.7811 17.6667 13.3333C17.6667 13.8856 17.219 14.3333 16.6667 14.3333H16C15.4477 14.3333 15 13.8856 15 13.3333Z" fill="white"/>
<path fill-rule="evenodd" clip-rule="evenodd" d="M20.3333 13.3333C20.3333 12.7811 20.781 12.3333 21.3333 12.3333H22C22.5523 12.3333 23 12.7811 23 13.3333C23 13.8856 22.5523 14.3333 22 14.3333H21.3333C20.781 14.3333 20.3333 13.8856 20.3333 13.3333Z" fill="white"/>
<path fill-rule="evenodd" clip-rule="evenodd" d="M9.66663 18.6667C9.66663 18.1144 10.1143 17.6667 10.6666 17.6667H11.3333C11.8856 17.6667 12.3333 18.1144 12.3333 18.6667C12.3333 19.219 11.8856 19.6667 11.3333 19.6667H10.6666C10.1143 19.6667 9.66663 19.219 9.66663 18.6667Z" fill="white"/>
<path fill-rule="evenodd" clip-rule="evenodd" d="M15 18.6667C15 18.1144 15.4477 17.6667 16 17.6667H16.6667C17.219 17.6667 17.6667 18.1144 17.6667 18.6667C17.6667 19.219 17.219 19.6667 16.6667 19.6667H16C15.4477 19.6667 15 19.219 15 18.6667Z" fill="white"/>
<path fill-rule="evenodd" clip-rule="evenodd" d="M20.3333 18.6667C20.3333 18.1144 20.781 17.6667 21.3333 17.6667H22C22.5523 17.6667 23 18.1144 23 18.6667C23 19.219 22.5523 19.6667 22 19.6667H21.3333C20.781 19.6667 20.3333 19.219 20.3333 18.6667Z" fill="white"/>
</svg>
