<svg width="24" height="26" viewBox="0 0 24 26" fill="none" xmlns="http://www.w3.org/2000/svg">
<path fill-rule="evenodd" clip-rule="evenodd" d="M0.333313 6.49529C0.333313 3.88114 2.4525 1.76196 5.06665 1.76196H18.9333C21.5475 1.76196 23.6666 3.88114 23.6666 6.49529V20.362C23.6666 22.9761 21.5475 25.0953 18.9333 25.0953H5.06665C2.4525 25.0953 0.333313 22.9761 0.333313 20.362V6.49529ZM5.06665 3.76196C3.55707 3.76196 2.33331 4.98571 2.33331 6.49529V20.362C2.33331 21.8715 3.55707 23.0953 5.06665 23.0953H18.9333C20.4429 23.0953 21.6666 21.8715 21.6666 20.362V6.49529C21.6666 4.98571 20.4429 3.76196 18.9333 3.76196H5.06665Z" fill="white"/>
<path fill-rule="evenodd" clip-rule="evenodd" d="M7.42853 0.238091C7.98081 0.238091 8.42853 0.685806 8.42853 1.23809V4.28571C8.42853 4.83799 7.98081 5.28571 7.42853 5.28571C6.87624 5.28571 6.42853 4.83799 6.42853 4.28571V1.23809C6.42853 0.685806 6.87624 0.238091 7.42853 0.238091Z" fill="white"/>
<path fill-rule="evenodd" clip-rule="evenodd" d="M16.5714 0.238091C17.1237 0.238091 17.5714 0.685806 17.5714 1.23809V4.28571C17.5714 4.83799 17.1237 5.28571 16.5714 5.28571C16.0191 5.28571 15.5714 4.83799 15.5714 4.28571V1.23809C15.5714 0.685806 16.0191 0.238091 16.5714 0.238091Z" fill="white"/>
<path fill-rule="evenodd" clip-rule="evenodd" d="M2.33331 11.9048C2.33331 15.9811 5.63788 19.2857 9.71427 19.2857H21.9047C22.457 19.2857 22.9047 19.7334 22.9047 20.2857C22.9047 20.838 22.457 21.2857 21.9047 21.2857H9.71427C4.53332 21.2857 0.333313 17.0857 0.333313 11.9048H2.33331Z" fill="white"/>
<path fill-rule="evenodd" clip-rule="evenodd" d="M5.66663 9.33334C5.66663 8.78105 6.11434 8.33334 6.66663 8.33334H7.33329C7.88558 8.33334 8.33329 8.78105 8.33329 9.33334C8.33329 9.88562 7.88558 10.3333 7.33329 10.3333H6.66663C6.11434 10.3333 5.66663 9.88562 5.66663 9.33334Z" fill="white"/>
<path fill-rule="evenodd" clip-rule="evenodd" d="M11 9.33334C11 8.78105 11.4477 8.33334 12 8.33334H12.6667C13.219 8.33334 13.6667 8.78105 13.6667 9.33334C13.6667 9.88562 13.219 10.3333 12.6667 10.3333H12C11.4477 10.3333 11 9.88562 11 9.33334Z" fill="white"/>
<path fill-rule="evenodd" clip-rule="evenodd" d="M16.3333 9.33334C16.3333 8.78105 16.781 8.33334 17.3333 8.33334H18C18.5523 8.33334 19 8.78105 19 9.33334C19 9.88562 18.5523 10.3333 18 10.3333H17.3333C16.781 10.3333 16.3333 9.88562 16.3333 9.33334Z" fill="white"/>
<path fill-rule="evenodd" clip-rule="evenodd" d="M5.66663 14.6667C5.66663 14.1144 6.11434 13.6667 6.66663 13.6667H7.33329C7.88558 13.6667 8.33329 14.1144 8.33329 14.6667C8.33329 15.219 7.88558 15.6667 7.33329 15.6667H6.66663C6.11434 15.6667 5.66663 15.219 5.66663 14.6667Z" fill="white"/>
<path fill-rule="evenodd" clip-rule="evenodd" d="M11 14.6667C11 14.1144 11.4477 13.6667 12 13.6667H12.6667C13.219 13.6667 13.6667 14.1144 13.6667 14.6667C13.6667 15.219 13.219 15.6667 12.6667 15.6667H12C11.4477 15.6667 11 15.219 11 14.6667Z" fill="white"/>
<path fill-rule="evenodd" clip-rule="evenodd" d="M16.3333 14.6667C16.3333 14.1144 16.781 13.6667 17.3333 13.6667H18C18.5523 13.6667 19 14.1144 19 14.6667C19 15.219 18.5523 15.6667 18 15.6667H17.3333C16.781 15.6667 16.3333 15.219 16.3333 14.6667Z" fill="white"/>
</svg>
