<svg width="32" height="30" viewBox="0 0 32 30" fill="none" xmlns="http://www.w3.org/2000/svg">
<g clip-path="url(#clip0_3143_9802)">
<path d="M0 28.9752C0 29.4676 0.396606 29.8667 0.885941 29.8667H31.114C31.6034 29.8667 32 29.4676 32 28.9752V13.3899C32 12.8974 31.6034 12.4983 31.114 12.4983H0.885941C0.396606 12.4983 0 12.8974 0 13.3899V28.9752Z" fill="#EFEFF0"/>
<path d="M20.7405 2.3855H11.21V0.000117302H20.7405V2.3855Z" fill="#ABADAD"/>
<path d="M32 17.2937H0V4.77076H8.93865L8.93835 2.38538L11.2099 1.90735e-06L11.2107 4.77076H20.7402L20.7408 1.90735e-06L23.111 2.38538L23.1105 4.77076H32V17.2937Z" fill="#E3E4E5"/>
<path d="M15.9643 13.1984C15.9643 13.1984 24.0388 12.8326 28.3182 20.9985H15.2779C15.2779 20.9985 12.8153 20.9171 10.7157 23.9238C10.1104 25.1834 9.46454 26.4836 10.1911 29.0427C9.14137 27.2555 4.61963 19.333 4.61963 19.333C4.61963 19.333 7.80921 13.5232 15.9643 13.1984Z" fill="#E14C40"/>
<path d="M27.8972 33.9314C27.8972 33.9314 24.1738 41.1501 15.0063 40.7955C16.1374 38.8256 21.528 29.4318 21.528 29.4318C21.528 29.4318 22.8295 27.3266 21.293 23.9937C20.5118 22.836 19.716 21.6229 17.15 20.9759C19.2137 20.9555 28.2918 20.9773 28.2918 20.9773C28.2918 20.9773 31.6958 26.6624 27.8972 33.9314Z" fill="#FFD24D"/>
<path d="M4.08846 33.9864C4.08846 33.9864 -0.262197 27.1311 4.62751 19.3195C5.75747 21.2902 11.1452 30.6859 11.1452 30.6859C11.1452 30.6859 12.3061 32.8727 15.9429 33.2002C17.3296 33.0982 18.7713 33.0114 20.6109 31.0991C19.597 32.9072 15.0384 40.8082 15.0384 40.8082C15.0384 40.8082 8.44414 40.9319 4.08846 33.9864Z" fill="#00AA60"/>
<path d="M9.8208 27.1151C9.8208 23.72 12.556 20.9671 15.9304 20.9671C19.3047 20.9671 22.0396 23.72 22.0396 27.1151C22.0396 30.5112 19.3047 33.2637 15.9304 33.2637C12.556 33.2637 9.8208 30.5112 9.8208 27.1151Z" fill="white"/>
<path d="M11.1396 27.115C11.1396 24.4527 13.2846 22.2942 15.9304 22.2942C18.5755 22.2942 20.7208 24.4527 20.7208 27.115C20.7208 29.7776 18.5755 31.936 15.9304 31.936C13.2846 31.936 11.1396 29.7776 11.1396 27.115Z" fill="#577FC0"/>
<path d="M15.9641 13.1982C15.9641 13.1982 21.2948 12.9568 25.5891 17.2462C25.5185 17.2462 10.9259 17.2935 6.23779 17.2935C7.93339 15.5854 11.0457 13.3942 15.9641 13.1982Z" fill="#D6483E"/>
</g>
<defs>
<clipPath id="clip0_3143_9802">
<rect width="32" height="29.8667" fill="white"/>
</clipPath>
</defs>
</svg>
