<svg width="39" height="39" viewBox="0 0 39 39" fill="none" xmlns="http://www.w3.org/2000/svg">
<path d="M30.1111 21.7755C32.1566 21.7755 33.8558 23.4537 33.405 25.4489C32.9568 27.4322 32.1472 29.3271 31.006 31.035C29.1746 33.7758 26.5716 35.9121 23.5262 37.1735C20.4808 38.435 17.1297 38.765 13.8966 38.1219C10.6636 37.4789 7.69391 35.8915 5.36304 33.5606C3.03216 31.2298 1.44482 28.26 0.801729 25.027C0.158642 21.794 0.488697 18.4429 1.75016 15.3975C3.01162 12.352 5.14783 9.74905 7.88865 7.9177C9.59659 6.77649 11.4915 5.96685 13.4748 5.5187C15.47 5.06785 17.1481 6.76706 17.1481 8.81256V12.5163C17.1481 17.63 21.2937 21.7755 26.4074 21.7755H30.1111Z" fill="url(#paint0_linear_771_3856)"/>
<path d="M22.7037 6.09825C22.7037 2.48357 25.7422 -0.561301 29.0818 0.821974C31.1039 1.65955 32.9412 2.88721 34.4888 4.43485C36.0365 5.9825 37.2641 7.81982 38.1017 9.84191C39.485 13.1814 36.4401 16.22 32.8254 16.22H31.037C26.4347 16.22 22.7037 12.489 22.7037 7.88663V6.09825Z" fill="url(#paint1_linear_771_3856)"/>
<defs>
<linearGradient id="paint0_linear_771_3856" x1="19.4619" y1="0.481445" x2="19.4619" y2="38.4422" gradientUnits="userSpaceOnUse">
<stop stop-color="#A5F0C5"/>
<stop offset="1" stop-color="#68E294"/>
</linearGradient>
<linearGradient id="paint1_linear_771_3856" x1="19.4619" y1="0.481445" x2="19.4619" y2="38.4422" gradientUnits="userSpaceOnUse">
<stop stop-color="#A5F0C5"/>
<stop offset="1" stop-color="#68E294"/>
</linearGradient>
</defs>
</svg>
