<svg width="133" height="19" viewBox="0 0 133 19" fill="none" xmlns="http://www.w3.org/2000/svg">
<path d="M25.1201 12.0641C25.1201 12.961 24.8147 13.8064 24.2038 14.6004C23.5929 15.3796 22.7362 16.0634 21.6337 16.6515C20.546 17.2249 19.2498 17.6807 17.745 18.0189C16.2402 18.3571 14.5938 18.5262 12.8059 18.5262C10.8541 18.5262 9.08853 18.3497 7.50921 17.9968C5.94479 17.644 4.60386 17.0926 3.48642 16.3427C2.36898 15.5928 1.50482 14.6371 0.893953 13.4756C0.297984 12.2993 0 10.8951 0 9.26308C0 7.61631 0.297984 6.21214 0.893953 5.05058C1.50482 3.87432 2.36898 2.91125 3.48642 2.16138C4.60386 1.41152 5.94479 0.867494 7.50921 0.529318C9.08853 0.176439 10.8541 0 12.8059 0C14.5789 0 16.2178 0.169088 17.7226 0.507263C19.2274 0.830736 20.5237 1.27919 21.6113 1.85261C22.7139 2.41134 23.5706 3.08034 24.1814 3.85962C24.7923 4.62419 25.0977 5.44757 25.0977 6.32977L19.9575 6.77087C19.9575 6.27096 19.7713 5.83721 19.3988 5.46963C19.0412 5.08734 18.5421 4.77122 17.9014 4.52126C17.2756 4.2566 16.5232 4.06546 15.6442 3.94783C14.78 3.81551 13.8339 3.74934 12.8059 3.74934C11.599 3.74934 10.5189 3.87432 9.5653 4.12427C8.62665 4.35953 7.82209 4.71241 7.15163 5.18291C6.49606 5.63871 5.99694 6.21214 5.65425 6.9032C5.31157 7.57955 5.14023 8.36618 5.14023 9.26308C5.14023 11.0863 5.8107 12.461 7.15163 13.3874C8.50746 14.3137 10.3922 14.7768 12.8059 14.7768C13.8488 14.7768 14.8098 14.7106 15.6889 14.5783C16.5679 14.4313 17.3203 14.2254 17.9461 13.9608C18.5868 13.6814 19.0859 13.3506 19.4435 12.9683C19.8011 12.5713 19.9799 12.1229 19.9799 11.623L25.1201 12.0641Z" fill="white"/>
<path d="M31.1583 4.63154V11.8656C31.1583 12.2037 31.2179 12.5493 31.3371 12.9021C31.4712 13.2403 31.7245 13.5491 32.0969 13.8285C32.4843 14.1078 33.0281 14.3357 33.7284 14.5122C34.4436 14.6886 35.3822 14.7768 36.5444 14.7768C37.4383 14.7768 38.2056 14.7106 38.8463 14.5783C39.487 14.4313 40.0084 14.2548 40.4107 14.049C40.8279 13.8284 41.1333 13.5932 41.327 13.3432C41.5356 13.0933 41.6473 12.8507 41.6622 12.6154V4.63154H46.8025V18.0851H42.6679L41.9528 16.0781C41.3419 16.8132 40.4405 17.4087 39.2486 17.8645C38.0566 18.3056 36.4848 18.5262 34.533 18.5262C32.9685 18.5262 31.6425 18.3791 30.5549 18.0851C29.4672 17.7763 28.5882 17.3352 27.9177 16.7618C27.2472 16.1883 26.763 15.4899 26.465 14.6665C26.167 13.8432 26.0181 12.9095 26.0181 11.8656V4.63154H31.1583Z" fill="white"/>
<path d="M48.8078 18.0851V0.220549H53.948V18.0851H48.8078Z" fill="white"/>
<path d="M55.3602 4.63154H58.2655V0.661649H63.4057V4.63154H72.6581V8.38088H63.4057V12.858C63.4057 13.4315 63.5249 13.902 63.7633 14.2695C64.0166 14.6224 64.4859 14.865 65.1713 14.9974C65.8567 15.115 66.8028 15.1223 68.0096 15.0194C69.2313 14.9165 70.8106 14.6886 72.7476 14.3357V18.0851C70.0955 18.5703 67.8457 18.8643 65.9982 18.9673C64.1656 19.0702 62.6757 18.9305 61.5284 18.5482C60.3812 18.1659 59.5468 17.519 59.0254 16.6074C58.5188 15.6811 58.2655 14.4313 58.2655 12.858V8.38088H55.3602V4.63154Z" fill="white"/>
<path d="M78.8023 4.63154V11.8656C78.8023 12.2037 78.8619 12.5493 78.9811 12.9021C79.1152 13.2403 79.3685 13.5491 79.741 13.8285C80.1284 14.1078 80.6722 14.3357 81.3725 14.5122C82.0876 14.6886 83.0263 14.7768 84.1884 14.7768C85.0824 14.7768 85.8497 14.7106 86.4903 14.5783C87.131 14.4313 87.6525 14.2548 88.0547 14.049C88.4719 13.8284 88.7774 13.5932 88.9711 13.3432C89.1796 13.0933 89.2914 12.8507 89.3063 12.6154V4.63154H94.4465V18.0851H90.312L89.5968 16.0781C88.986 16.8132 88.0845 17.4087 86.8926 17.8645C85.7007 18.3056 84.1288 18.5262 82.177 18.5262C80.6126 18.5262 79.2866 18.3791 78.1989 18.0851C77.1113 17.7763 76.2322 17.3352 75.5618 16.7618C74.8913 16.1883 74.4071 15.4899 74.1091 14.6665C73.8111 13.8432 73.6621 12.9095 73.6621 11.8656V4.63154H78.8023Z" fill="white"/>
<path d="M96.787 18.0851V4.63154H100.251L100.922 6.57237C101.234 5.86662 101.726 5.27113 102.397 4.78592C103.082 4.30071 103.864 3.96989 104.743 3.79345C105.637 3.61701 106.598 3.61701 107.626 3.79345C108.654 3.95519 109.682 4.34482 110.71 4.96236V9.70417C109.325 8.76316 108.088 8.17503 107 7.93978C105.913 7.70453 104.989 7.71923 104.229 7.98389C103.484 8.24855 102.911 8.7117 102.508 9.37335C102.121 10.0203 101.927 10.7628 101.927 11.6009V18.0851H96.787Z" fill="white"/>
<path d="M122.407 4.19044C125.804 4.19044 128.418 4.85944 130.251 6.19744C132.084 7.53544 133 9.54979 133 12.2405V12.8139H116.909C116.954 13.0639 117.095 13.3065 117.333 13.5417C117.587 13.777 117.944 13.9902 118.406 14.1813C118.868 14.3578 119.434 14.5048 120.105 14.6224C120.775 14.7253 121.55 14.7768 122.429 14.7768C123.338 14.7768 124.12 14.7401 124.776 14.6665C125.446 14.5783 125.997 14.4827 126.429 14.3798C126.862 14.2769 127.182 14.1813 127.39 14.0931C127.614 14.0049 127.733 13.9534 127.748 13.9387H132.888C132.411 15.3649 131.279 16.4897 129.491 17.3131C127.718 18.1218 125.357 18.5262 122.407 18.5262C120.753 18.5262 119.263 18.3718 117.937 18.063C116.626 17.7542 115.508 17.2984 114.585 16.6956C113.676 16.0928 112.975 15.3502 112.484 14.468C112.007 13.5711 111.769 12.5346 111.769 11.3583C111.769 10.1967 112.007 9.16751 112.484 8.2706C112.975 7.3737 113.676 6.62383 114.585 6.021C115.508 5.41816 116.626 4.96236 117.937 4.65359C119.263 4.34482 120.753 4.19044 122.407 4.19044ZM122.429 7.93978C121.401 7.93978 120.537 7.99859 119.837 8.11622C119.151 8.21914 118.592 8.35882 118.16 8.53526C117.743 8.697 117.43 8.87344 117.222 9.06458C117.028 9.25572 116.924 9.43952 116.909 9.61596V9.8365H127.86V9.5939C127.86 9.43216 127.763 9.25572 127.569 9.06458C127.376 8.87344 127.063 8.697 126.631 8.53526C126.199 8.35882 125.64 8.21914 124.954 8.11622C124.269 7.99859 123.427 7.93978 122.429 7.93978Z" fill="white"/>
</svg>
