<svg width="32" height="32" viewBox="0 0 32 32" fill="none" xmlns="http://www.w3.org/2000/svg">
<path d="M28.2514 0H3.74857C1.68229 0 0 1.46985 0 3.29118V24.8915C0 26.7129 1.68229 28.1827 3.74857 28.1827H24.4846L23.5154 25.227L25.856 27.1283L28.0686 28.9176L32 31.9532V3.29118C32 1.46985 30.3177 0 28.2514 0ZM21.1931 20.8654C21.1931 20.8654 20.5349 20.1784 19.9863 19.5713C22.3817 18.9802 23.296 17.6701 23.296 17.6701C22.5463 18.1015 21.8331 18.405 21.1931 18.6127C20.2789 18.9482 19.4011 19.1719 18.5417 19.2997C16.7863 19.5873 15.1771 19.5074 13.8057 19.2838C12.7634 19.108 11.8674 18.8524 11.1177 18.5968C10.6971 18.453 10.24 18.2772 9.78286 18.0536C9.728 18.0216 9.67314 18.0056 9.61829 17.9737C9.58171 17.9577 9.56343 17.9417 9.54514 17.9257C9.216 17.766 9.03314 17.6541 9.03314 17.6541C9.03314 17.6541 9.91086 18.9323 12.2331 19.5394C11.6846 20.1465 11.008 20.8654 11.008 20.8654C6.96686 20.7536 5.43086 18.437 5.43086 18.437C5.43086 13.2925 8.064 9.12264 8.064 9.12264C10.6971 7.39716 13.2023 7.44509 13.2023 7.44509L13.3851 7.63681C10.0937 8.4676 8.576 9.72975 8.576 9.72975C8.576 9.72975 8.97828 9.53803 9.65486 9.26643C11.6114 8.51553 13.1657 8.30783 13.8057 8.2599C13.9154 8.24392 14.0069 8.22795 14.1166 8.22795C15.232 8.10013 16.4937 8.06818 17.8103 8.19599C19.5474 8.37174 21.4126 8.81908 23.3143 9.72975C23.3143 9.72975 21.8697 8.5315 18.7611 7.70072L19.0171 7.44509C19.0171 7.44509 21.5223 7.39716 24.1554 9.12264C24.1554 9.12264 26.7886 13.2925 26.7886 18.437C26.7886 18.437 25.2343 20.7536 21.1931 20.8654ZM12.6903 13.4044C11.648 13.4044 10.8251 14.2032 10.8251 15.1778C10.8251 16.1523 11.6663 16.9512 12.6903 16.9512C13.7326 16.9512 14.5554 16.1523 14.5554 15.1778C14.5737 14.2032 13.7326 13.4044 12.6903 13.4044ZM19.3646 13.4044C18.3223 13.4044 17.4994 14.2032 17.4994 15.1778C17.4994 16.1523 18.3406 16.9512 19.3646 16.9512C20.4069 16.9512 21.2297 16.1523 21.2297 15.1778C21.2297 14.2032 20.4069 13.4044 19.3646 13.4044Z" fill="white"/>
</svg>
