<svg width="32" height="32" viewBox="0 0 32 32" fill="none" xmlns="http://www.w3.org/2000/svg">
<g filter="url(#filter0_bi_3133_9735)">
<path fill-rule="evenodd" clip-rule="evenodd" d="M16 0C24.8375 0 32 7.20616 32 16.0975C32 24.1336 26.15 30.7927 18.5 32V20.7506L22.2281 20.7506L22.2282 20.7506L22.9375 16.0975H22.9375H18.5V13.0792C18.5 11.965 18.9737 10.8749 20.4236 10.6198C20.6308 10.5834 20.8578 10.564 21.1063 10.564C21.1063 10.564 21.1063 10.564 21.1063 10.564L23.125 10.564L23.125 10.564V6.60247C23.125 6.60247 23.125 6.60248 23.125 6.60247C23.125 6.60247 21.2937 6.28807 19.5437 6.28807C18.6145 6.28807 17.7672 6.43206 17.0202 6.71307C14.8281 7.53772 13.5 9.54238 13.5 12.551V16.0975H9.4375H9.43747V20.7506L9.4375 20.7506L13.5 20.7506V32C5.85 30.7927 0 24.1336 0 16.0975C0 7.20616 7.16253 0 16 0Z" fill="url(#paint0_linear_3133_9735)"/>
</g>
<defs>
<filter id="filter0_bi_3133_9735" x="-24.375" y="-24.375" width="80.75" height="80.75" filterUnits="userSpaceOnUse" color-interpolation-filters="sRGB">
<feFlood flood-opacity="0" result="BackgroundImageFix"/>
<feGaussianBlur in="BackgroundImage" stdDeviation="12.1875"/>
<feComposite in2="SourceAlpha" operator="in" result="effect1_backgroundBlur_3133_9735"/>
<feBlend mode="normal" in="SourceGraphic" in2="effect1_backgroundBlur_3133_9735" result="shape"/>
<feColorMatrix in="SourceAlpha" type="matrix" values="0 0 0 0 0 0 0 0 0 0 0 0 0 0 0 0 0 0 127 0" result="hardAlpha"/>
<feOffset dy="4.0625"/>
<feGaussianBlur stdDeviation="8.125"/>
<feComposite in2="hardAlpha" operator="arithmetic" k2="-1" k3="1"/>
<feColorMatrix type="matrix" values="0 0 0 0 1 0 0 0 0 1 0 0 0 0 1 0 0 0 0.4 0"/>
<feBlend mode="normal" in2="shape" result="effect2_innerShadow_3133_9735"/>
</filter>
<linearGradient id="paint0_linear_3133_9735" x1="3.73807e-08" y1="-3.37701" x2="39.3985" y2="37.71" gradientUnits="userSpaceOnUse">
<stop stop-color="#FDFBFB"/>
<stop offset="1" stop-color="#EBEDEE"/>
</linearGradient>
</defs>
</svg>
