<svg width="28" height="28" viewBox="0 0 28 28" fill="none" xmlns="http://www.w3.org/2000/svg">
<path fill-rule="evenodd" clip-rule="evenodd" d="M5.83331 4.39833C5.8396 3.91771 6.22769 3.52962 6.70831 3.52333L6.69665 3.5C7.1799 3.5 7.57165 3.89175 7.57165 4.375V4.74833H7.87498H14.875C15.9344 4.68861 16.8424 5.49742 16.905 6.55667V6.65C16.9676 7.70924 17.8756 8.51806 18.935 8.45833H19.9966C21.0497 8.39804 21.9574 9.19161 22.0383 10.2433V16.4267C21.9757 17.4859 21.0677 18.2947 20.0083 18.235H13.0083C11.9489 18.2947 11.0409 17.4859 10.9783 16.4267V16.3567C10.9157 15.2974 10.0077 14.4886 8.94831 14.5483H7.88665H7.58331V24.2317C7.58331 24.7149 7.19156 25.1067 6.70831 25.1067C6.22506 25.1067 5.83331 24.7149 5.83331 24.2317V4.39833ZM15.05 6.60333C14.9928 6.5868 14.9321 6.5868 14.875 6.60333V6.62667H7.68832V12.7167H8.94832C10.9883 12.6628 12.7027 14.2378 12.8216 16.275C12.8795 16.2853 12.9388 16.2853 12.9966 16.275H19.9966C20.0545 16.2853 20.1138 16.2853 20.1716 16.275V10.2433C20.1145 10.2268 20.0538 10.2268 19.9966 10.2433H18.935C16.8603 10.3024 15.126 8.6775 15.05 6.60333Z" fill="#232526"/>
</svg>
