<svg width="32" height="32" viewBox="0 0 32 32" fill="none" xmlns="http://www.w3.org/2000/svg">
<path d="M20.1481 3.55556C20.8027 3.55556 21.3333 3.02493 21.3333 2.37037C21.3333 1.71581 20.8027 1.18519 20.1481 1.18519L15.3359 1.18518C12.4337 1.18517 10.1588 1.18516 8.35394 1.38071C6.5121 1.58026 5.01975 1.99478 3.74556 2.92054C2.97417 3.48098 2.2958 4.15935 1.73535 4.93074C0.809599 6.20493 0.395072 7.69729 0.195521 9.53912C-2.29588e-05 11.344 -1.26949e-05 13.6189 2.09126e-07 16.5211V16.6641C-1.26949e-05 19.5663 -2.29588e-05 21.8412 0.195521 23.6461C0.395072 25.4879 0.809599 26.9803 1.73535 28.2544C2.2958 29.0258 2.97417 29.7042 3.74556 30.2646C5.01975 31.1904 6.5121 31.6049 8.35394 31.8045C10.1588 32 12.4336 32 15.3357 32H15.4789C18.3811 32 20.6561 32 22.4609 31.8045C24.3027 31.6049 25.7951 31.1904 27.0693 30.2646C27.8406 29.7042 28.519 29.0258 29.0795 28.2544C30.0052 26.9803 30.4197 25.4879 30.6193 23.6461C30.8148 21.8412 30.8148 19.5664 30.8148 16.6643V11.8519C30.8148 11.1973 30.2842 10.6667 29.6296 10.6667C28.9751 10.6667 28.4444 11.1973 28.4444 11.8519V16.5926C28.4444 19.5817 28.4428 21.7284 28.2627 23.3907C28.085 25.0309 27.745 26.0584 27.1618 26.8612C26.7475 27.4313 26.2461 27.9327 25.676 28.347C24.8732 28.9302 23.8457 29.2702 22.2056 29.4479C20.5432 29.628 18.3966 29.6296 15.4074 29.6296C12.4183 29.6296 10.2716 29.628 8.60926 29.4479C6.9691 29.2702 5.9416 28.9302 5.13883 28.347C4.56867 27.9327 4.06727 27.4313 3.65302 26.8612C3.06977 26.0584 2.7298 25.0309 2.5521 23.3907C2.372 21.7284 2.37037 19.5817 2.37037 16.5926C2.37037 13.6034 2.372 11.4568 2.5521 9.79444C2.7298 8.15429 3.06977 7.12678 3.65302 6.32401C4.06727 5.75385 4.56867 5.25245 5.13883 4.83821C5.9416 4.25496 6.9691 3.91499 8.60926 3.73729C10.2716 3.55718 12.4183 3.55556 15.4074 3.55556H20.1481Z" fill="white"/>
<path d="M6.44211 20.5856C6.15384 21.1733 6.39655 21.8834 6.98422 22.1716C7.57188 22.4599 8.28197 22.2172 8.57024 21.6295L10.8779 16.9251C11.5932 15.4669 13.6955 15.5381 14.3105 17.0413C15.6997 20.4374 20.4491 20.5983 22.065 17.304L24.3727 12.5996C24.661 12.0119 24.4183 11.3018 23.8306 11.0135C23.2429 10.7253 22.5328 10.968 22.2446 11.5556L19.9369 16.2601C19.2216 17.7183 17.1193 17.6471 16.5044 16.1438C15.1151 12.7478 10.3657 12.5869 8.7498 15.8812L6.44211 20.5856Z" fill="white"/>
<path fill-rule="evenodd" clip-rule="evenodd" d="M24.0988 3.95062C24.0988 6.13248 25.8675 7.90123 28.0494 7.90123C30.2312 7.90123 32 6.13248 32 3.95062C32 1.76875 30.2312 0 28.0494 0C25.8675 0 24.0988 1.76875 24.0988 3.95062ZM26.4691 3.95062C26.4691 4.82336 27.1766 5.53086 28.0494 5.53086C28.9221 5.53086 29.6296 4.82336 29.6296 3.95062C29.6296 3.07787 28.9221 2.37037 28.0494 2.37037C27.1766 2.37037 26.4691 3.07787 26.4691 3.95062Z" fill="white"/>
</svg>
