<svg width="32" height="32" viewBox="0 0 32 32" fill="none" xmlns="http://www.w3.org/2000/svg">
<path fill-rule="evenodd" clip-rule="evenodd" d="M5.15997 4H9.82664C11.4835 4 12.8266 5.34315 12.8266 7V11.6667C12.8266 13.3235 11.4835 14.6667 9.82664 14.6667H5.15997C3.50312 14.6667 2.15997 13.3235 2.15997 11.6667V7C2.15997 5.34315 3.50312 4 5.15997 4ZM9.82664 12.6667C10.3789 12.6667 10.8266 12.219 10.8266 11.6667V7C10.8266 6.44772 10.3789 6 9.82664 6H5.15997C4.61069 6.00718 4.16715 6.45072 4.15997 7V11.6667C4.16715 12.216 4.61069 12.6595 5.15997 12.6667H9.82664Z" fill="white"/>
<path d="M18.16 9H24.8266C25.3789 9 25.8266 8.55228 25.8266 8C25.8266 7.44772 25.3789 7 24.8266 7H18.16C17.6077 7 17.16 7.44772 17.16 8C17.16 8.55228 17.6077 9 18.16 9Z" fill="white"/>
<path d="M18.16 13H28.8266C29.3789 13 29.8266 12.5523 29.8266 12C29.8266 11.4477 29.3789 11 28.8266 11H18.16C17.6077 11 17.16 11.4477 17.16 12C17.16 12.5523 17.6077 13 18.16 13Z" fill="white"/>
<path fill-rule="evenodd" clip-rule="evenodd" d="M5.15997 17.3335H9.82664C11.4835 17.3335 12.8266 18.6766 12.8266 20.3335V25.0002C12.8266 25.7958 12.5106 26.5589 11.948 27.1215C11.3854 27.6841 10.6223 28.0002 9.82664 28.0002H5.15997C3.50312 28.0002 2.15997 26.657 2.15997 25.0002V20.3335C2.15997 18.6766 3.50312 17.3335 5.15997 17.3335ZM9.82664 26.0002C10.3789 26.0002 10.8266 25.5524 10.8266 25.0002V20.3335C10.8266 19.7812 10.3789 19.3335 9.82664 19.3335H5.15997C4.61069 19.3407 4.16715 19.7842 4.15997 20.3335V25.0002C4.16715 25.5494 4.61069 25.993 5.15997 26.0002H9.82664Z" fill="white"/>
<path d="M18.16 22.3335H24.8266C25.3789 22.3335 25.8266 21.8858 25.8266 21.3335C25.8266 20.7812 25.3789 20.3335 24.8266 20.3335H18.16C17.6077 20.3335 17.16 20.7812 17.16 21.3335C17.16 21.8858 17.6077 22.3335 18.16 22.3335Z" fill="white"/>
<path d="M28.8266 24.3335H18.16C17.6077 24.3335 17.16 24.7812 17.16 25.3335C17.16 25.8858 17.6077 26.3335 18.16 26.3335H28.8266C29.3789 26.3335 29.8266 25.8858 29.8266 25.3335C29.8266 24.7812 29.3789 24.3335 28.8266 24.3335Z" fill="white"/>
</svg>
