<svg width="32" height="32" viewBox="0 0 32 32" fill="none" xmlns="http://www.w3.org/2000/svg">
<path fill-rule="evenodd" clip-rule="evenodd" d="M4.33333 10.4955C4.33333 7.88139 6.45251 5.76221 9.06666 5.76221H22.9333C25.5475 5.76221 27.6667 7.88139 27.6667 10.4955V24.3622C27.6667 26.9764 25.5475 29.0955 22.9333 29.0955H9.06666C6.45251 29.0955 4.33333 26.9764 4.33333 24.3622V10.4955ZM9.06666 7.76221C7.55708 7.76221 6.33333 8.98596 6.33333 10.4955V24.3622C6.33333 25.8718 7.55708 27.0955 9.06666 27.0955H22.9333C24.4429 27.0955 25.6667 25.8718 25.6667 24.3622V10.4955C25.6667 8.98596 24.4429 7.76221 22.9333 7.76221H9.06666Z" fill="white"/>
<path fill-rule="evenodd" clip-rule="evenodd" d="M11.4285 4.23828C11.9808 4.23828 12.4285 4.686 12.4285 5.23828V8.2859C12.4285 8.83819 11.9808 9.2859 11.4285 9.2859C10.8763 9.2859 10.4285 8.83819 10.4285 8.2859V5.23828C10.4285 4.686 10.8763 4.23828 11.4285 4.23828Z" fill="white"/>
<path fill-rule="evenodd" clip-rule="evenodd" d="M20.5714 4.23828C21.1237 4.23828 21.5714 4.686 21.5714 5.23828V8.2859C21.5714 8.83819 21.1237 9.2859 20.5714 9.2859C20.0192 9.2859 19.5714 8.83819 19.5714 8.2859V5.23828C19.5714 4.686 20.0192 4.23828 20.5714 4.23828Z" fill="white"/>
<path fill-rule="evenodd" clip-rule="evenodd" d="M6.33333 15.9048C6.33333 19.9812 9.6379 23.2857 13.7143 23.2857H25.9048C26.457 23.2857 26.9048 23.7335 26.9048 24.2857C26.9048 24.838 26.457 25.2857 25.9048 25.2857H13.7143C8.53333 25.2857 4.33333 21.0857 4.33333 15.9048H6.33333Z" fill="white"/>
<path fill-rule="evenodd" clip-rule="evenodd" d="M9.66666 13.3335C9.66666 12.7812 10.1144 12.3335 10.6667 12.3335H11.3333C11.8856 12.3335 12.3333 12.7812 12.3333 13.3335C12.3333 13.8858 11.8856 14.3335 11.3333 14.3335H10.6667C10.1144 14.3335 9.66666 13.8858 9.66666 13.3335Z" fill="white"/>
<path fill-rule="evenodd" clip-rule="evenodd" d="M15 13.3335C15 12.7812 15.4477 12.3335 16 12.3335H16.6667C17.219 12.3335 17.6667 12.7812 17.6667 13.3335C17.6667 13.8858 17.219 14.3335 16.6667 14.3335H16C15.4477 14.3335 15 13.8858 15 13.3335Z" fill="white"/>
<path fill-rule="evenodd" clip-rule="evenodd" d="M20.3333 13.3335C20.3333 12.7812 20.781 12.3335 21.3333 12.3335H22C22.5523 12.3335 23 12.7812 23 13.3335C23 13.8858 22.5523 14.3335 22 14.3335H21.3333C20.781 14.3335 20.3333 13.8858 20.3333 13.3335Z" fill="white"/>
<path fill-rule="evenodd" clip-rule="evenodd" d="M9.66666 18.667C9.66666 18.1147 10.1144 17.667 10.6667 17.667H11.3333C11.8856 17.667 12.3333 18.1147 12.3333 18.667C12.3333 19.2193 11.8856 19.667 11.3333 19.667H10.6667C10.1144 19.667 9.66666 19.2193 9.66666 18.667Z" fill="white"/>
<path fill-rule="evenodd" clip-rule="evenodd" d="M15 18.667C15 18.1147 15.4477 17.667 16 17.667H16.6667C17.219 17.667 17.6667 18.1147 17.6667 18.667C17.6667 19.2193 17.219 19.667 16.6667 19.667H16C15.4477 19.667 15 19.2193 15 18.667Z" fill="white"/>
<path fill-rule="evenodd" clip-rule="evenodd" d="M20.3333 18.667C20.3333 18.1147 20.781 17.667 21.3333 17.667H22C22.5523 17.667 23 18.1147 23 18.667C23 19.2193 22.5523 19.667 22 19.667H21.3333C20.781 19.667 20.3333 19.2193 20.3333 18.667Z" fill="white"/>
</svg>
