<svg width="24" height="24" viewBox="0 0 24 24" fill="none" xmlns="http://www.w3.org/2000/svg">
<path fill-rule="evenodd" clip-rule="evenodd" d="M14.73 2.89048L20.29 7.00048C21.3567 7.77576 21.9914 9.01185 22 10.3305V17.7705C21.94 20.1637 19.9534 22.0564 17.56 22.0005H6.44C4.04665 22.0564 2.06002 20.1637 2 17.7705V10.3405C2.0061 9.01612 2.64544 7.77462 3.72 7.00048L9.27 2.89048C10.8964 1.70317 13.1036 1.70317 14.73 2.89048ZM17.56 20.5005C19.1251 20.5568 20.4404 19.3354 20.5 17.7705V10.3305C20.4948 9.48583 20.0812 8.6959 19.39 8.21048L13.84 4.10048C12.7439 3.30006 11.2561 3.30006 10.16 4.10048L4.61 8.20048C3.91817 8.69448 3.50534 9.4904 3.5 10.3405V17.7705C3.56502 19.333 4.87698 20.5512 6.44 20.5005H17.56Z" fill="white"/>
<path d="M16.5 15.7505H7.5C7.08579 15.7505 6.75 16.0863 6.75 16.5005C6.75 16.9147 7.08579 17.2505 7.5 17.2505H16.5C16.9142 17.2505 17.25 16.9147 17.25 16.5005C17.25 16.0863 16.9142 15.7505 16.5 15.7505Z" fill="white"/>
</svg>
