<svg width="32" height="32" viewBox="0 0 32 32" fill="none" xmlns="http://www.w3.org/2000/svg">
<path fill-rule="evenodd" clip-rule="evenodd" d="M16 32C24.8366 32 32 24.8366 32 16C32 7.16344 24.8366 0 16 0C7.16344 0 0 7.16344 0 16C0 24.8366 7.16344 32 16 32ZM9.1104 10.6903C10.5512 10.6903 11.4484 9.73647 11.4484 8.54441C11.4216 7.32714 10.5512 6.4 9.13763 6.4C7.72411 6.4 6.8 7.32714 6.8 8.54441C6.8 9.73647 7.6968 10.6903 9.08399 10.6903H9.1104ZM11.1763 24.7997V12.3848H7.04434V24.7997H11.1763ZM26.0778 17.6814L26.0776 24.7997H21.9458V18.1577C21.9458 16.4894 21.3479 15.351 19.8521 15.351C18.7105 15.351 18.0306 16.1184 17.732 16.8597C17.6227 17.1254 17.5959 17.4955 17.5959 17.8665V24.8H13.4634C13.4634 24.8 13.5179 13.5501 13.4634 12.3852H17.5959V14.1436C18.1443 13.2983 19.1265 12.0933 21.3203 12.0933C24.0393 12.0933 26.0778 13.8681 26.0778 17.6814Z" fill="url(#paint0_linear_3133_9739)"/>
<defs>
<linearGradient id="paint0_linear_3133_9739" x1="3.73807e-08" y1="-3.37701" x2="39.3985" y2="37.71" gradientUnits="userSpaceOnUse">
<stop stop-color="#FDFBFB"/>
<stop offset="1" stop-color="#EBEDEE"/>
</linearGradient>
</defs>
</svg>
