<svg width="18" height="23" viewBox="0 0 18 23" fill="none" xmlns="http://www.w3.org/2000/svg">
<path fill-rule="evenodd" clip-rule="evenodd" d="M0.833008 1.39833C0.839291 0.917711 1.22739 0.529617 1.70801 0.523333L1.69634 0.5C2.17959 0.5 2.57134 0.891751 2.57134 1.375V1.74833H2.87467H9.87467C10.9341 1.68861 11.842 2.49742 11.9047 3.55667V3.65C11.9673 4.70924 12.8753 5.51806 13.9347 5.45833H14.9963C16.0494 5.39804 16.9571 6.19161 17.038 7.24333V13.4267C16.9754 14.4859 16.0674 15.2947 15.008 15.235H8.00801C6.9486 15.2947 6.04063 14.4859 5.97801 13.4267V13.3567C5.91538 12.2974 5.00742 11.4886 3.94801 11.5483H2.88634H2.58301V21.2317C2.58301 21.7149 2.19126 22.1067 1.70801 22.1067C1.22476 22.1067 0.833008 21.7149 0.833008 21.2317V1.39833ZM10.0497 3.60334C9.99251 3.58681 9.93183 3.58681 9.87467 3.60334V3.62667H2.688V9.71667H3.948C5.98795 9.66282 7.70238 11.2378 7.82134 13.275C7.87922 13.2853 7.93846 13.2853 7.99634 13.275H14.9963C15.0542 13.2853 15.1135 13.2853 15.1713 13.275V7.24334C15.1142 7.22681 15.0535 7.22681 14.9963 7.24334H13.9347C11.86 7.30239 10.1257 5.67751 10.0497 3.60334Z" fill="white"/>
</svg>
