<svg width="40" height="33" viewBox="0 0 40 33" fill="none" xmlns="http://www.w3.org/2000/svg">
<path d="M16.498 27.6493C16.3378 27.6147 16.2407 27.4492 16.2871 27.29L19.7193 15.5267C19.7996 15.2515 19.4733 15.0424 19.2624 15.2338L0.535016 32.2304C0.342917 32.4047 0.464607 32.7273 0.722479 32.7273H37.3458C37.683 32.7273 37.7342 32.2352 37.4043 32.164L16.498 27.6493Z" fill="white"/>
<path fill-rule="evenodd" clip-rule="evenodd" d="M20.19 10.9136C20.0825 10.8136 19.9175 10.8136 19.81 10.9136L0.474279 28.8945C0.226439 29.125 -0.139077 28.7996 0.054471 28.5208L19.7702 0.120914C19.8821 -0.0403047 20.1179 -0.0403045 20.2298 0.120914L39.9455 28.5208C40.1391 28.7996 39.7736 29.125 39.5257 28.8945L20.19 10.9136ZM20.3128 7.10159C20.2237 7.01833 20.0864 7.01833 19.9973 7.10159L14.8663 11.8972C14.6616 12.0885 14.3584 11.8199 14.5181 11.5887L19.9645 3.70365C20.0571 3.56958 20.253 3.56958 20.3456 3.70365L25.792 11.5887C25.9517 11.8199 25.6485 12.0885 25.4438 11.8972L20.3128 7.10159Z" fill="white"/>
</svg>
