<svg width="86" height="19" viewBox="0 0 86 19" fill="none" xmlns="http://www.w3.org/2000/svg">
<path d="M0 18.5422V0.228917H12.0075C14.0945 0.228917 15.8013 0.373897 17.128 0.663857C18.4547 0.953816 19.4982 1.36586 20.2585 1.9C21.0187 2.43414 21.5405 3.08273 21.8237 3.84578C22.1069 4.59358 22.2486 5.43293 22.2486 6.36386C22.2486 7.29478 22.1069 8.13414 21.8237 8.88193C21.5405 9.62972 21.0187 10.2707 20.2585 10.8048C19.4982 11.339 18.4547 11.751 17.128 12.041C15.8013 12.3309 14.0945 12.4759 12.0075 12.4759H5.14288V18.5422H0ZM17.1057 6.36386C17.1057 6.02811 17.046 5.72289 16.9268 5.44819C16.8075 5.17349 16.5616 4.93695 16.1889 4.73855C15.8311 4.54016 15.3168 4.38755 14.646 4.28072C13.9752 4.1739 13.0957 4.12048 12.0075 4.12048H5.14288V8.58434H12.0075C13.0957 8.58434 13.9752 8.53856 14.646 8.44699C15.3168 8.34016 15.8311 8.19518 16.1889 8.01205C16.5616 7.81365 16.8075 7.57711 16.9268 7.30241C17.046 7.02771 17.1057 6.71486 17.1057 6.36386Z" fill="white"/>
<path d="M33.1349 4.12048C36.5337 4.12048 39.1498 4.81486 40.9834 6.20361C42.8169 7.59237 43.7337 9.68313 43.7337 12.4759V13.0711H27.6342C27.679 13.3305 27.8206 13.5823 28.0591 13.8265C28.3125 14.0707 28.6703 14.292 29.1324 14.4904C29.5945 14.6735 30.161 14.8261 30.8318 14.9482C31.5026 15.055 32.2777 15.1084 33.1573 15.1084C34.0666 15.1084 34.8492 15.0703 35.5051 14.994C36.1759 14.9024 36.7275 14.8032 37.1598 14.6964C37.5921 14.5896 37.9126 14.4904 38.1213 14.3988C38.3449 14.3072 38.4641 14.2538 38.479 14.2386H43.6219C43.1449 15.7189 42.012 16.8863 40.2231 17.741C38.4492 18.5803 36.0865 19 33.1349 19C31.4802 19 29.9895 18.8398 28.6628 18.5193C27.351 18.1988 26.233 17.7257 25.3088 17.1C24.3995 16.4743 23.6988 15.7036 23.2069 14.788C22.7299 13.857 22.4914 12.7811 22.4914 11.5602C22.4914 10.3546 22.7299 9.28635 23.2069 8.35542C23.6988 7.4245 24.3995 6.64618 25.3088 6.02048C26.233 5.39478 27.351 4.92169 28.6628 4.60121C29.9895 4.28072 31.4802 4.12048 33.1349 4.12048ZM33.1573 8.01205C32.1287 8.01205 31.2641 8.07309 30.5635 8.19518C29.8777 8.30201 29.3187 8.44699 28.8864 8.63012C28.469 8.79799 28.156 8.98112 27.9473 9.17952C27.7535 9.37791 27.6492 9.56868 27.6342 9.75181V9.98072H38.5908V9.72892C38.5908 9.56104 38.4939 9.37791 38.3001 9.17952C38.1063 8.98112 37.7933 8.79799 37.361 8.63012C36.9287 8.44699 36.3697 8.30201 35.684 8.19518C34.9983 8.07309 34.156 8.01205 33.1573 8.01205Z" fill="white"/>
<path d="M63.3042 18.5422H59.503L59.2123 16.6422C58.616 17.3747 57.7589 17.9546 56.6409 18.3819C55.5228 18.794 54.1291 19 52.4595 19C51.0582 19 49.8433 18.8855 48.8147 18.6566C47.8011 18.443 46.9588 18.1454 46.288 17.7639C45.6172 17.3671 45.1178 16.894 44.7899 16.3446C44.4619 15.7952 44.298 15.2 44.298 14.559C44.298 13.6281 44.5066 12.8727 44.924 12.2928C45.3563 11.6976 45.9154 11.2321 46.6011 10.8964C47.3017 10.5454 48.0918 10.3012 48.9713 10.1639C49.8508 10.0265 50.7526 9.94257 51.6769 9.91205C52.6011 9.88153 53.503 9.88916 54.3825 9.93494C55.262 9.98072 56.0446 10.0112 56.7303 10.0265C57.4309 10.0418 57.9899 10.0189 58.4073 9.95783C58.8396 9.89679 59.0558 9.75944 59.0558 9.54578C59.0558 9.27108 58.9142 9.04217 58.6309 8.85904C58.3477 8.66064 57.9676 8.5004 57.4906 8.37831C57.0135 8.24096 56.462 8.1494 55.8359 8.10362C55.2098 8.04257 54.5614 8.01205 53.8905 8.01205C52.862 8.01205 52.0123 8.07309 51.3415 8.19518C50.6707 8.30201 50.1415 8.43936 49.7539 8.60723C49.3663 8.7751 49.0905 8.96586 48.9265 9.17952C48.7626 9.37791 48.6806 9.57631 48.6806 9.7747L44.5216 9.31687C44.4321 8.47751 44.5066 7.73735 44.7452 7.09639C44.9837 6.44016 45.4532 5.89076 46.1539 5.44819C46.8545 5.00562 47.8234 4.67751 49.0607 4.46386C50.3129 4.23494 51.893 4.12048 53.8011 4.12048C55.7688 4.12048 57.3713 4.25783 58.6086 4.53253C59.8458 4.80723 60.8073 5.18876 61.4931 5.67711C62.1937 6.1502 62.6707 6.72249 62.9241 7.39398C63.1775 8.0502 63.3042 8.76747 63.3042 9.54578V18.5422ZM52.8172 15.1084C53.8011 15.1084 54.6732 15.0398 55.4334 14.9024C56.1937 14.7498 56.8347 14.5667 57.3564 14.353C57.893 14.1241 58.303 13.8799 58.5862 13.6205C58.8694 13.3458 59.026 13.0863 59.0558 12.8422V12.0181C58.5639 12.3996 57.9676 12.6743 57.267 12.8422C56.5663 13.01 55.8284 13.1245 55.0533 13.1855C54.2781 13.2313 53.503 13.2542 52.7278 13.2542C51.9526 13.2542 51.252 13.2771 50.6259 13.3229C50.0147 13.3534 49.5154 13.4373 49.1278 13.5747C48.7551 13.6968 48.5688 13.9181 48.5688 14.2386C48.5688 14.3454 48.621 14.4522 48.7253 14.559C48.8446 14.6659 49.0607 14.7574 49.3737 14.8337C49.6868 14.91 50.1191 14.9787 50.6706 15.0398C51.2222 15.0855 51.9377 15.1084 52.8172 15.1084Z" fill="white"/>
<path d="M64.1987 18.5422V0H69.3415V10.5072L77.6596 4.57831H85.2845L75.2894 11.6289L86 18.5422H77.7043L71.4211 14.0325L69.3415 14.4675V18.5422H64.1987Z" fill="white"/>
</svg>
