<svg width="32" height="35" viewBox="0 0 32 35" fill="none" xmlns="http://www.w3.org/2000/svg">
<path fill-rule="evenodd" clip-rule="evenodd" d="M16 5.0236C11.9155 5.0236 8.60433 8.33476 8.60433 12.4193C8.60433 16.5038 11.9155 19.815 16 19.815C20.0845 19.815 23.3957 16.5038 23.3957 12.4193C23.3957 8.33476 20.0845 5.0236 16 5.0236ZM10.9398 12.4193C10.9398 9.62461 13.2053 7.35908 16 7.35908C18.7947 7.35908 21.0602 9.62461 21.0602 12.4193C21.0602 15.2139 18.7947 17.4795 16 17.4795C13.2053 17.4795 10.9398 15.2139 10.9398 12.4193Z" fill="#FAFAFA"/>
<path fill-rule="evenodd" clip-rule="evenodd" d="M16.4439 0.0110137C16.1482 -0.00367124 15.8518 -0.00367124 15.5561 0.0110137C14.4142 0.0677039 13.363 0.399482 12.1911 0.943298C11.0503 1.47271 9.72463 2.23809 8.0475 3.2064L7.95251 3.26124C6.27536 4.22953 4.94969 4.9949 3.92078 5.71819C2.86389 6.46115 2.05095 7.20565 1.43094 8.16616C1.27033 8.41497 1.12217 8.67159 0.986997 8.93508C0.465178 9.95228 0.226895 11.0286 0.111917 12.3153C-1.73542e-05 13.568 -9.56304e-06 15.0988 1.81323e-07 17.0354V17.1451C-9.56304e-06 19.0817 -1.73542e-05 20.6124 0.111917 21.8651C0.226895 23.1519 0.465178 24.2282 0.986997 25.2454C1.12217 25.5089 1.27033 25.7655 1.43094 26.0143C2.19116 27.192 3.24483 28.0484 4.68039 28.9713C5.57728 29.5479 6.66843 30.1779 7.97771 30.9338L8.04747 30.974C9.72462 31.9424 11.0503 32.7077 12.1911 33.2372C13.363 33.781 14.4142 34.1128 15.5561 34.1694C15.8518 34.1841 16.1482 34.1841 16.4439 34.1694C17.5858 34.1128 18.637 33.781 19.8089 33.2372C20.9497 32.7077 22.2754 31.9424 23.9525 30.974L24.0233 30.9332C25.3449 30.1702 26.4443 29.5354 27.3463 28.9541C28.7682 28.0377 29.8135 27.1848 30.5691 26.0143C30.7297 25.7655 30.8778 25.5089 31.013 25.2454C31.5348 24.2282 31.7731 23.1519 31.8881 21.8651C32 20.6124 32 19.0817 32 17.1452V17.0354C32 15.0989 32 13.568 31.8881 12.3153C31.7731 11.0286 31.5348 9.95228 31.013 8.93508C30.8778 8.67159 30.7297 8.41496 30.5691 8.16616C29.9491 7.20565 29.1361 6.46115 28.0792 5.71819C27.0503 4.9949 25.7246 4.22953 24.0475 3.26124L23.9525 3.2064C22.2754 2.23809 20.9497 1.47271 19.8089 0.943298C18.637 0.399482 17.5858 0.0677039 16.4439 0.0110137ZM15.6719 2.34362C15.8905 2.33276 16.1095 2.33276 16.3281 2.34362C17.0643 2.38017 17.8108 2.59077 18.8258 3.06178C19.861 3.54221 21.0972 4.25465 22.8323 5.2564C24.5673 6.25816 25.8024 6.97246 26.7361 7.62882C27.6515 8.27232 28.2071 8.81347 28.6069 9.43275C28.7256 9.61666 28.8351 9.80634 28.935 10.0011C29.2714 10.6569 29.4623 11.4087 29.5619 12.5232C29.6635 13.66 29.6645 15.0867 29.6645 17.0902C29.6645 19.0937 29.6635 20.5205 29.5619 21.6573C29.4623 22.7718 29.2714 23.5235 28.935 24.1794C28.8351 24.3741 28.7256 24.5638 28.6069 24.7477C28.288 25.2416 27.8714 25.6845 27.2523 26.1697C26.0258 23.7837 23.5402 22.1504 20.6709 22.1504H11.329C8.45982 22.1504 5.97424 23.7836 4.74774 26.1697C4.12862 25.6845 3.71201 25.2417 3.39312 24.7477C3.27442 24.5638 3.16491 24.3741 3.065 24.1794C2.72856 23.5235 2.53771 22.7718 2.43812 21.6573C2.33655 20.5205 2.33548 19.0937 2.33548 17.0902C2.33548 15.0867 2.33655 13.66 2.43812 12.5232C2.53771 11.4087 2.72856 10.6569 3.065 10.0011C3.1649 9.80634 3.27442 9.61666 3.39312 9.43275C3.79287 8.81348 4.34849 8.27232 5.26389 7.62882C6.19759 6.97246 7.43265 6.25816 9.16774 5.2564C10.9028 4.25465 12.139 3.54221 13.1742 3.06178C14.1892 2.59077 14.9357 2.38017 15.6719 2.34362ZM20.6709 24.4859C22.7294 24.4859 24.503 25.7157 25.293 27.4826C24.6006 27.9029 23.7919 28.37 22.8323 28.9241C21.0972 29.9258 19.861 30.6383 18.8258 31.1187C17.8108 31.5897 17.0643 31.8003 16.3281 31.8368C16.1095 31.8477 15.8905 31.8477 15.6719 31.8368C14.9357 31.8003 14.1892 31.5897 13.1742 31.1187C12.139 30.6383 10.9028 29.9258 9.16774 28.9241C8.2082 28.3701 7.39949 27.903 6.70698 27.4826C7.49694 25.7158 9.27058 24.4859 11.329 24.4859H20.6709Z" fill="#FAFAFA"/>
</svg>
