<svg width="24" height="24" viewBox="0 0 24 24" fill="none" xmlns="http://www.w3.org/2000/svg">
<path d="M20.25 21H14.175C13.275 21 12.45 20.625 11.775 20.025L2.25 10.5L7.5 4.5C7.5 7.425 10.575 10.5 13.5 10.5H14.25C14.175 13.875 15.45 16.35 18.75 17.4C18.975 17.475 19.125 17.55 19.35 17.55C20.25 17.775 20.85 18.75 20.625 19.65L20.25 21Z" stroke="white" stroke-width="1.5" stroke-miterlimit="10" stroke-linecap="round" stroke-linejoin="round"/>
<path d="M0.75 12L11.025 22.275C11.625 22.875 12.525 23.25 13.425 23.25H20.25" stroke="white" stroke-width="1.5" stroke-miterlimit="10" stroke-linecap="round" stroke-linejoin="round"/>
<path d="M7.875 12.75C8.49632 12.75 9 12.2463 9 11.625C9 11.0037 8.49632 10.5 7.875 10.5C7.25368 10.5 6.75 11.0037 6.75 11.625C6.75 12.2463 7.25368 12.75 7.875 12.75Z" stroke="white" stroke-width="1.5" stroke-miterlimit="10" stroke-linecap="round" stroke-linejoin="round"/>
<path d="M11.25 14.25H14.625" stroke="white" stroke-width="1.5" stroke-miterlimit="10" stroke-linecap="round" stroke-linejoin="round"/>
<path d="M12.75 16.5H16.875" stroke="white" stroke-width="1.5" stroke-miterlimit="10" stroke-linecap="round" stroke-linejoin="round"/>
<path d="M21 0.75L15.525 6.225C14.25 7.5 13.8 9.3 14.25 11.025" stroke="white" stroke-width="1.5" stroke-miterlimit="10" stroke-linecap="round" stroke-linejoin="round"/>
<path d="M7.5 5.25C8.925 4.8 10.2 3.75 10.95 2.475L12 0.75" stroke="white" stroke-width="1.5" stroke-miterlimit="10" stroke-linecap="round" stroke-linejoin="round"/>
</svg>
