<svg width="24" height="24" viewBox="0 0 24 24" fill="none" xmlns="http://www.w3.org/2000/svg">
<path d="M12 0C5.37236 0 0 5.37236 0 12C0 18.6276 5.37236 24 12 24C18.6276 24 24 18.6276 24 12C24 5.37318 18.6276 0.000818833 12 0ZM17.5034 17.3069C17.288 17.6606 16.827 17.7711 16.4749 17.5558C13.6573 15.8338 10.1101 15.4448 5.93326 16.3988C5.5304 16.4913 5.12917 16.2391 5.03746 15.8362C4.94493 15.4334 5.19632 15.0321 5.6 14.9404C10.1707 13.8964 14.0921 14.346 17.2553 16.2784C17.6074 16.4954 17.7196 16.9548 17.5034 17.3069ZM18.9715 14.0405C18.7005 14.4811 18.1241 14.6186 17.6843 14.3484C14.4598 12.366 9.54186 11.792 5.72692 12.9498C5.23234 13.0997 4.70993 12.8205 4.55926 12.3267C4.41024 11.8321 4.68946 11.3105 5.18321 11.1599C9.54104 9.83746 14.9593 10.4778 18.6628 12.7541C19.1034 13.0252 19.2426 13.6008 18.9715 14.0405ZM19.0976 10.6375C15.2295 8.34063 8.84913 8.12938 5.15619 9.24954C4.56336 9.42968 3.93613 9.09478 3.75681 8.50194C3.57748 7.90911 3.91157 7.28188 4.50522 7.10174C8.74432 5.81535 15.7904 6.06346 20.2432 8.70665C20.7763 9.02354 20.9515 9.71218 20.6354 10.2444C20.3202 10.7783 19.6299 10.9543 19.0976 10.6375Z" fill="white"/>
</svg>
