<svg width="28" height="28" viewBox="0 0 28 28" fill="none" xmlns="http://www.w3.org/2000/svg">
<path fill-rule="evenodd" clip-rule="evenodd" d="M4.51465 3.5H8.59798C10.0477 3.5 11.223 4.67525 11.223 6.125V10.2083C11.223 11.6581 10.0477 12.8333 8.59798 12.8333H4.51465C3.0649 12.8333 1.88965 11.6581 1.88965 10.2083V6.125C1.88965 4.67525 3.0649 3.5 4.51465 3.5ZM8.59798 11.0833C9.08123 11.0833 9.47298 10.6916 9.47298 10.2083V6.125C9.47298 5.64175 9.08123 5.25 8.59798 5.25H4.51465C4.03403 5.25628 3.64593 5.64438 3.63965 6.125V10.2083C3.64593 10.689 4.03403 11.0771 4.51465 11.0833H8.59798Z" fill="white"/>
<path d="M15.8896 7.875H21.723C22.2062 7.875 22.598 7.48325 22.598 7C22.598 6.51675 22.2062 6.125 21.723 6.125H15.8896C15.4064 6.125 15.0146 6.51675 15.0146 7C15.0146 7.48325 15.4064 7.875 15.8896 7.875Z" fill="white"/>
<path d="M15.8896 11.375H25.223C25.7062 11.375 26.098 10.9832 26.098 10.5C26.098 10.0168 25.7062 9.625 25.223 9.625H15.8896C15.4064 9.625 15.0146 10.0168 15.0146 10.5C15.0146 10.9832 15.4064 11.375 15.8896 11.375Z" fill="white"/>
<path fill-rule="evenodd" clip-rule="evenodd" d="M4.51465 15.1666H8.59798C10.0477 15.1666 11.223 16.3419 11.223 17.7916V21.875C11.223 22.5712 10.9464 23.2388 10.4541 23.7311C9.96185 24.2234 9.29417 24.5 8.59798 24.5H4.51465C3.0649 24.5 1.88965 23.3247 1.88965 21.875V17.7916C1.88965 16.3419 3.0649 15.1666 4.51465 15.1666ZM8.59798 22.75C9.08123 22.75 9.47298 22.3582 9.47298 21.875V17.7916C9.47298 17.3084 9.08123 16.9166 8.59798 16.9166H4.51465C4.03403 16.9229 3.64593 17.311 3.63965 17.7916V21.875C3.64593 22.3556 4.03403 22.7437 4.51465 22.75H8.59798Z" fill="white"/>
<path d="M15.8896 19.5416H21.723C22.2062 19.5416 22.598 19.1499 22.598 18.6666C22.598 18.1834 22.2062 17.7916 21.723 17.7916H15.8896C15.4064 17.7916 15.0146 18.1834 15.0146 18.6666C15.0146 19.1499 15.4064 19.5416 15.8896 19.5416Z" fill="white"/>
<path d="M25.223 21.2916H15.8896C15.4064 21.2916 15.0146 21.6834 15.0146 22.1666C15.0146 22.6499 15.4064 23.0416 15.8896 23.0416H25.223C25.7062 23.0416 26.098 22.6499 26.098 22.1666C26.098 21.6834 25.7062 21.2916 25.223 21.2916Z" fill="white"/>
</svg>
