<svg width="28" height="28" viewBox="0 0 28 28" fill="none" xmlns="http://www.w3.org/2000/svg">
<path fill-rule="evenodd" clip-rule="evenodd" d="M4.51501 3.5H8.59835C10.0481 3.5 11.2233 4.67525 11.2233 6.125V10.2083C11.2233 11.6581 10.0481 12.8333 8.59835 12.8333H4.51501C3.06527 12.8333 1.89001 11.6581 1.89001 10.2083V6.125C1.89001 4.67525 3.06527 3.5 4.51501 3.5ZM8.59835 11.0833C9.0816 11.0833 9.47335 10.6916 9.47335 10.2083V6.125C9.47335 5.64175 9.0816 5.25 8.59835 5.25H4.51501C4.03439 5.25628 3.6463 5.64438 3.64001 6.125V10.2083C3.6463 10.689 4.03439 11.0771 4.51501 11.0833H8.59835Z" fill="#232526"/>
<path d="M15.89 7.875H21.7234C22.2066 7.875 22.5984 7.48325 22.5984 7C22.5984 6.51675 22.2066 6.125 21.7234 6.125H15.89C15.4068 6.125 15.015 6.51675 15.015 7C15.015 7.48325 15.4068 7.875 15.89 7.875V7.875Z" fill="#232526"/>
<path d="M15.89 11.375H25.2234C25.7066 11.375 26.0984 10.9832 26.0984 10.5C26.0984 10.0168 25.7066 9.625 25.2234 9.625H15.89C15.4068 9.625 15.015 10.0168 15.015 10.5C15.015 10.9832 15.4068 11.375 15.89 11.375Z" fill="#232526"/>
<path fill-rule="evenodd" clip-rule="evenodd" d="M4.51501 15.167H8.59835C10.0481 15.167 11.2233 16.3422 11.2233 17.792V21.8753C11.2233 22.5715 10.9468 23.2392 10.4545 23.7315C9.96222 24.2238 9.29454 24.5003 8.59835 24.5003H4.51501C3.06527 24.5003 1.89001 23.3251 1.89001 21.8753V17.792C1.89001 16.3422 3.06527 15.167 4.51501 15.167ZM8.59835 22.7503C9.0816 22.7503 9.47335 22.3586 9.47335 21.8753V17.792C9.47335 17.3087 9.0816 16.917 8.59835 16.917H4.51501C4.03439 16.9233 3.6463 17.3114 3.64001 17.792V21.8753C3.6463 22.3559 4.03439 22.744 4.51501 22.7503H8.59835Z" fill="#232526"/>
<path d="M15.89 19.542H21.7234C22.2066 19.542 22.5984 19.1502 22.5984 18.667C22.5984 18.1837 22.2066 17.792 21.7234 17.792H15.89C15.4068 17.792 15.015 18.1837 15.015 18.667C15.015 19.1502 15.4068 19.542 15.89 19.542V19.542Z" fill="#232526"/>
<path d="M25.2234 21.292H15.89C15.4068 21.292 15.015 21.6837 15.015 22.167C15.015 22.6502 15.4068 23.042 15.89 23.042H25.2234C25.7066 23.042 26.0984 22.6502 26.0984 22.167C26.0984 21.6837 25.7066 21.292 25.2234 21.292Z" fill="#232526"/>
</svg>
