<svg width="40" height="40" viewBox="0 0 40 40" fill="none" xmlns="http://www.w3.org/2000/svg">
<path fill-rule="evenodd" clip-rule="evenodd" d="M9.68252 3.3335H30.3174C33.824 3.3335 36.6666 6.17613 36.6666 9.6827V30.3176C36.6666 33.8242 33.824 36.6668 30.3174 36.6668H9.68252C6.17595 36.6668 3.33331 33.8242 3.33331 30.3176V9.6827C3.33331 6.17613 6.17595 3.3335 9.68252 3.3335ZM30.3175 34.2858C32.5091 34.2858 34.2857 32.5091 34.2857 30.3175V9.68261C34.2857 7.491 32.5091 5.71436 30.3175 5.71436H9.68257C7.49096 5.71436 5.71431 7.491 5.71431 9.68261V30.3175C5.71431 32.5091 7.49096 34.2858 9.68257 34.2858H30.3175Z" fill="white"/>
<path d="M28.7301 14.8418H23.9682C23.3107 14.8418 22.7777 15.3748 22.7777 16.0323C22.7777 16.6898 23.3107 17.2227 23.9682 17.2227H25.4444L19.7936 22.8735L16.619 19.6989C15.7766 18.8594 14.4138 18.8594 13.5714 19.6989L9.42854 23.7148C8.96433 24.1796 8.96433 24.9326 9.42854 25.3974C9.65058 25.6222 9.95383 25.748 10.2698 25.7466C10.5861 25.7499 10.8901 25.6237 11.1111 25.3974L15.0317 21.4767L18.2063 24.6513C19.0542 25.4927 20.422 25.4927 21.2698 24.6513L27.4762 18.445V20.7942C27.4762 21.4517 28.0092 21.9847 28.6666 21.9847C29.3241 21.9847 29.8571 21.4517 29.8571 20.7942V16.0323C29.8502 15.4019 29.3591 14.8832 28.7301 14.8418V14.8418Z" fill="white"/>
</svg>
