<svg width="32" height="32" viewBox="0 0 32 32" fill="none" xmlns="http://www.w3.org/2000/svg">
<path fill-rule="evenodd" clip-rule="evenodd" d="M14.375 11.4931C13.4456 10.9211 12.6868 10.4541 12.0611 10.1465C11.4324 9.83741 10.7777 9.6043 10.0887 9.6815C9.09285 9.79307 8.2087 10.3476 7.64342 11.177C7.25977 11.7398 7.1255 12.423 7.06297 13.1495C7.00063 13.8738 7.00064 14.8022 7.00065 15.952V16.0478C7.00064 17.1977 7.00063 18.126 7.06297 18.8503C7.1255 19.5768 7.25977 20.26 7.64342 20.8229C8.2087 21.6522 9.09285 22.2068 10.0887 22.3183C10.7777 22.3955 11.4324 22.1624 12.0611 21.8533C12.6868 21.5458 13.4456 21.0787 14.375 20.5067L14.463 20.4526C15.3933 19.8801 16.1519 19.4133 16.7138 18.9901C17.2843 18.5604 17.7789 18.0859 18.0444 17.4502C18.4305 16.5258 18.4305 15.4741 18.0444 14.5496C17.7789 13.9139 17.2843 13.4394 16.7138 13.0098C16.1519 12.5866 15.3933 12.1197 14.463 11.5472L14.375 11.4931ZM10.3114 11.6691C10.4161 11.6573 10.6418 11.6774 11.1788 11.9413C11.7088 12.2019 12.3865 12.6177 13.3713 13.2238C14.3556 13.8295 15.0329 14.2476 15.5106 14.6074C15.9885 14.9673 16.1398 15.179 16.1989 15.3204C16.379 15.7517 16.379 16.2482 16.1989 16.6794C16.1398 16.8209 15.9885 17.0326 15.5106 17.3924C15.0329 17.7522 14.3556 18.1703 13.3713 18.7761C12.3865 19.3821 11.7088 19.798 11.1788 20.0585C10.6418 20.3225 10.4161 20.3425 10.3114 20.3308C9.92271 20.2872 9.54907 20.0677 9.29605 19.6965C9.21061 19.5711 9.11035 19.3149 9.0556 18.6788C9.00154 18.0506 9.00065 17.2089 9.00065 15.9999C9.00065 14.7909 9.00154 13.9492 9.0556 13.321C9.11035 12.6849 9.21061 12.4287 9.29605 12.3034C9.54907 11.9322 9.92271 11.7126 10.3114 11.6691Z" fill="url(#paint0_linear_2564_8602)"/>
<path fill-rule="evenodd" clip-rule="evenodd" d="M16.4607 4.4274C15.3083 4.33324 13.8744 4.33325 12.0454 4.33325H11.9559C10.1269 4.33325 8.69303 4.33324 7.54057 4.4274C6.36704 4.52328 5.39756 4.72176 4.52006 5.16887C3.07748 5.9039 1.90463 7.07675 1.1696 8.51933C0.722489 9.39683 0.524014 10.3663 0.428134 11.5398C0.333974 12.6923 0.333978 14.1262 0.333984 15.9552V16.0447C0.333978 17.8736 0.333974 19.3075 0.428134 20.46C0.524014 21.6335 0.722489 22.603 1.1696 23.4805C1.90463 24.9231 3.07748 26.0959 4.52006 26.831C5.39756 27.2781 6.36704 27.4766 7.54057 27.5724C8.69301 27.6666 10.1269 27.6666 11.9558 27.6666H12.0454C13.8743 27.6666 15.3083 27.6666 16.4607 27.5724C17.6343 27.4766 18.6037 27.2781 19.4812 26.831C20.9238 26.0959 22.0967 24.9231 22.8317 23.4805C22.8984 23.3496 22.9596 23.2166 23.0158 23.0811C24.5713 23.7608 25.8452 24.3124 26.8793 24.593C27.9791 24.8913 29.0505 24.9528 30.0083 24.3261C30.9661 23.6994 31.3387 22.693 31.5057 21.5657C31.6674 20.4741 31.6674 19.0342 31.6673 17.2668V14.733C31.6674 12.9656 31.6674 11.5257 31.5057 10.4341C31.3387 9.30683 30.9661 8.30045 30.0083 7.67375C29.0505 7.04704 27.9791 7.10851 26.8793 7.40688C25.8452 7.6874 24.5713 8.23909 23.0158 8.91871C22.9596 8.78323 22.8984 8.65024 22.8317 8.51933C22.0967 7.07675 20.9238 5.9039 19.4812 5.16887C18.6037 4.72176 17.6343 4.52328 16.4607 4.4274ZM23.5989 21.1533L23.5053 21.1125C23.6675 19.8402 23.6674 18.2446 23.6673 16.1411V15.8588C23.6674 13.7554 23.6675 12.1596 23.5053 10.8874L23.5989 10.8465C25.3145 10.0969 26.4979 9.58262 27.4029 9.33712C28.2899 9.09648 28.6644 9.18451 28.9132 9.34731C29.162 9.51011 29.3926 9.81802 29.5273 10.7272C29.6647 11.6548 29.6673 12.9451 29.6673 14.8173V17.1825C29.6673 19.0547 29.6647 20.3451 29.5273 21.2727C29.3926 22.1818 29.162 22.4897 28.9132 22.6525C28.6644 22.8153 28.2899 22.9034 27.4029 22.6627C26.4979 22.4172 25.3145 21.903 23.5989 21.1533ZM5.42804 6.95088C5.97661 6.67137 6.65359 6.50653 7.70343 6.42076C8.76494 6.33403 10.1173 6.33325 12.0007 6.33325C13.884 6.33325 15.2364 6.33403 16.2979 6.42076C17.3477 6.50653 18.0247 6.67137 18.5733 6.95088C19.6395 7.49416 20.5064 8.36105 21.0497 9.42731C21.2041 9.73031 21.3231 10.072 21.4131 10.4912C21.6617 11.6491 21.6673 13.2431 21.6673 15.9999C21.6673 18.7559 21.6617 20.3499 21.4133 21.5077C21.3232 21.9274 21.2042 22.2693 21.0497 22.5725C20.5064 23.6388 19.6395 24.5057 18.5733 25.049C18.0247 25.3285 17.3477 25.4933 16.2979 25.5791C15.2364 25.6658 13.884 25.6666 12.0007 25.6666C10.1173 25.6666 8.76494 25.6658 7.70343 25.5791C6.65359 25.4933 5.97661 25.3285 5.42804 25.049C4.36179 24.5057 3.4949 23.6388 2.95161 22.5725C2.6721 22.024 2.50727 21.347 2.42149 20.2971C2.33476 19.2356 2.33398 17.8833 2.33398 15.9999C2.33398 14.1166 2.33476 12.7642 2.42149 11.7027C2.50727 10.6529 2.6721 9.97588 2.95161 9.42731C3.4949 8.36105 4.36179 7.49416 5.42804 6.95088Z" fill="url(#paint1_linear_2564_8602)"/>
<defs>
<linearGradient id="paint0_linear_2564_8602" x1="16.0007" y1="4.33325" x2="16.0007" y2="27.6666" gradientUnits="userSpaceOnUse">
<stop stop-color="#A5F0C5"/>
<stop offset="1" stop-color="#68E294"/>
</linearGradient>
<linearGradient id="paint1_linear_2564_8602" x1="16.0007" y1="4.33325" x2="16.0007" y2="27.6666" gradientUnits="userSpaceOnUse">
<stop stop-color="#A5F0C5"/>
<stop offset="1" stop-color="#68E294"/>
</linearGradient>
</defs>
</svg>
