<svg width="32" height="32" viewBox="0 0 32 32" fill="none" xmlns="http://www.w3.org/2000/svg">
<path d="M16.707 2.29297C16.3164 1.90234 15.6836 1.90234 15.293 2.29297C14.9136 2.67236 6 11.6816 6 20C6 25.5142 10.4858 30 16 30C21.5137 30 26 25.5142 26 20C26 11.6816 17.0869 2.67236 16.707 2.29297ZM16 28C11.5889 28 8 24.4111 8 20C8 13.7925 13.9248 6.73877 16.0005 4.45898C18.0762 6.73682 24 13.7837 24 20C24 24.4111 20.4111 28 16 28Z" fill="white"/>
<path d="M16 24C13.7944 24 12 22.1895 12 19.9644C12 19.4121 11.5522 18.9644 11 18.9644C10.4478 18.9644 10 19.4121 10 19.9644C10 23.2925 12.6914 26 16 26C16.5522 26 17 25.5522 17 25C17 24.4478 16.5522 24 16 24Z" fill="white"/>
</svg>
